<svg id="레이어_1" data-name="레이어 1" xmlns="http://www.w3.org/2000/svg" viewBox="0 0 205.45 207.03"><defs><style>.cls-1,.cls-2{fill:#25822e;}.cls-1{stroke:#25822e;stroke-miterlimit:10;stroke-width:2px;}</style></defs><title>아이콘</title><path class="cls-1" d="M57.57,148.41c-.3-6.94,9.25-6.94,9.25,0v53.82H251.76V184.87c0-7,9.25-7,9.25,0v55.55h-9.25v-26H66.82v24.3H57.57S57.87,155.36,57.57,148.41Z" transform="translate(-56.56 -34.39)"/><path class="cls-1" d="M80.2,195.28s-1.43-13.88,8.56-15.62h22.83s7.13,0,8.55,8.68v6.94Z" transform="translate(-56.56 -34.39)"/><path class="cls-1" d="M130.47,177.92H215.8s24.38,5.21,24.38,10.42v6.94H130.47Z" transform="translate(-56.56 -34.39)"/><path class="cls-2" d="M175.91,124.17l-5.86.54a2.48,2.48,0,0,0-.76.23,26,26,0,0,0-2.28-4.3,2.18,2.18,0,0,0,.63-.51l3.75-4.52a2.24,2.24,0,0,0-.29-3.14l-8.51-7a2.22,2.22,0,0,0-3.13.3l-3.76,4.52a2.33,2.33,0,0,0-.38.71,25.33,25.33,0,0,0-4.65-1.44,2.09,2.09,0,0,0,.08-.79l-.54-5.86a2.24,2.24,0,0,0-2.43-2l-11,1a2.23,2.23,0,0,0-2,2.42l.55,5.86a2.4,2.4,0,0,0,.23.76,26.75,26.75,0,0,0-4.3,2.28,2.14,2.14,0,0,0-.51-.62l-4.52-3.76a2.23,2.23,0,0,0-3.14.3l-7,8.5a2.24,2.24,0,0,0,.29,3.14l4.53,3.75a2.13,2.13,0,0,0,.71.38,25.57,25.57,0,0,0-1.44,4.65,2.09,2.09,0,0,0-.79-.08l-5.86.55a2.23,2.23,0,0,0-2,2.42l1,11a2.23,2.23,0,0,0,2.42,2l5.86-.55a2.17,2.17,0,0,0,.76-.23,26.33,26.33,0,0,0,2.28,4.3,2.14,2.14,0,0,0-.62.51L119.43,154a2.22,2.22,0,0,0,.3,3.13l8.5,7.05a2.23,2.23,0,0,0,3.14-.29l3.75-4.53a2.13,2.13,0,0,0,.38-.71,26.15,26.15,0,0,0,4.65,1.45,2.07,2.07,0,0,0-.08.79l.55,5.85a2.21,2.21,0,0,0,2.42,2l11-1a2.23,2.23,0,0,0,2-2.42l-.55-5.86a2.48,2.48,0,0,0-.23-.76,24.88,24.88,0,0,0,4.3-2.28,2.18,2.18,0,0,0,.51.63l4.53,3.75a2.23,2.23,0,0,0,3.13-.29l7-8.51a2.22,2.22,0,0,0-.29-3.13L170,145.09a2.33,2.33,0,0,0-.71-.38,25.33,25.33,0,0,0,1.44-4.65,2.37,2.37,0,0,0,.8.09l5.85-.55a2.22,2.22,0,0,0,2-2.43l-1-11A2.21,2.21,0,0,0,175.91,124.17Zm-29.06,26.06a15.5,15.5,0,1,1,14-16.87A15.49,15.49,0,0,1,146.85,150.23Z" transform="translate(-56.56 -34.39)"/><path class="cls-2" d="M239.73,83l-7.1-2.75a2.8,2.8,0,0,0-1-.17,33.18,33.18,0,0,0-.16-6.31,2.85,2.85,0,0,0,1-.23l7-3.08a2.89,2.89,0,0,0,1.47-3.8l-5.79-13.1a2.9,2.9,0,0,0-3.81-1.47l-7,3.08a3.07,3.07,0,0,0-.85.61,33.11,33.11,0,0,0-4.56-4.37,2.71,2.71,0,0,0,.56-.87l2.75-7.1a2.9,2.9,0,0,0-1.65-3.74l-13.35-5.16a2.88,2.88,0,0,0-3.73,1.65l-2.75,7.11a2.78,2.78,0,0,0-.18,1,33.2,33.2,0,0,0-6.31.15,2.78,2.78,0,0,0-.22-1l-3.08-7a2.88,2.88,0,0,0-3.81-1.47l-13.09,5.78a2.88,2.88,0,0,0-1.47,3.81l3.08,7a2.9,2.9,0,0,0,.6.85A33,33,0,0,0,171.92,57a2.82,2.82,0,0,0-.87-.56l-7.11-2.74a2.87,2.87,0,0,0-3.73,1.65l-5.16,13.35a2.88,2.88,0,0,0,1.65,3.73l7.1,2.75a2.8,2.8,0,0,0,1,.17,33.2,33.2,0,0,0,.16,6.31,2.85,2.85,0,0,0-1,.23L157,85a2.88,2.88,0,0,0-1.47,3.8l5.79,13.09a2.88,2.88,0,0,0,3.8,1.48l7-3.09a2.77,2.77,0,0,0,.86-.6A32.49,32.49,0,0,0,177.5,104a2.87,2.87,0,0,0-.56.88l-2.75,7.1a2.88,2.88,0,0,0,1.65,3.73l13.35,5.17a2.89,2.89,0,0,0,3.73-1.65l2.75-7.11a3,3,0,0,0,.18-1,33.2,33.2,0,0,0,6.31-.16,2.64,2.64,0,0,0,.22,1l3.08,7a2.88,2.88,0,0,0,3.81,1.47l13.09-5.79a2.87,2.87,0,0,0,1.47-3.8l-3.08-7a2.9,2.9,0,0,0-.6-.85,33.64,33.64,0,0,0,4.36-4.56,3,3,0,0,0,.87.55l7.11,2.75a2.88,2.88,0,0,0,3.73-1.65l5.16-13.35A2.88,2.88,0,0,0,239.73,83ZM191,96.48A20.08,20.08,0,1,1,217,85,20.08,20.08,0,0,1,191,96.48Z" transform="translate(-56.56 -34.39)"/><path class="cls-2" d="M221.13,149l-3.87-.79a1.64,1.64,0,0,0-.54,0,17.35,17.35,0,0,0-.62-3.21,1.64,1.64,0,0,0,.5-.2l3.3-2.18a1.49,1.49,0,0,0,.43-2.07l-4.08-6.2a1.5,1.5,0,0,0-2.08-.43l-3.3,2.17a1.52,1.52,0,0,0-.38.38,17.45,17.45,0,0,0-2.71-1.84,1.65,1.65,0,0,0,.21-.49l.8-3.87a1.5,1.5,0,0,0-1.16-1.77l-7.28-1.5a1.49,1.49,0,0,0-1.77,1.16l-.8,3.87a1.63,1.63,0,0,0,0,.54,17.19,17.19,0,0,0-3.21.62,1.64,1.64,0,0,0-.2-.5l-2.18-3.3a1.5,1.5,0,0,0-2.07-.43L183.91,133a1.5,1.5,0,0,0-.42,2.08l2.17,3.3a1.37,1.37,0,0,0,.38.38,17.45,17.45,0,0,0-1.84,2.71,1.65,1.65,0,0,0-.49-.21l-3.88-.8a1.49,1.49,0,0,0-1.76,1.16l-1.5,7.28a1.49,1.49,0,0,0,1.16,1.77l3.87.8a1.63,1.63,0,0,0,.54,0,16.42,16.42,0,0,0,.62,3.21,1.37,1.37,0,0,0-.5.21L179,157.06a1.49,1.49,0,0,0-.42,2.07l4.08,6.21a1.49,1.49,0,0,0,2.07.42l3.31-2.17a1.52,1.52,0,0,0,.38-.38,17.45,17.45,0,0,0,2.71,1.84,1.43,1.43,0,0,0-.21.49l-.8,3.88a1.48,1.48,0,0,0,1.16,1.76l7.28,1.5a1.49,1.49,0,0,0,1.77-1.16l.79-3.87a1.63,1.63,0,0,0,0-.54,16.56,16.56,0,0,0,3.21-.62,1.54,1.54,0,0,0,.2.5l2.18,3.31a1.49,1.49,0,0,0,2.07.42l6.2-4.08a1.49,1.49,0,0,0,.43-2.07l-2.17-3.31a1.71,1.71,0,0,0-.38-.38,17.45,17.45,0,0,0,1.84-2.71,1.26,1.26,0,0,0,.49.21l3.87.8a1.49,1.49,0,0,0,1.77-1.16l1.5-7.28A1.49,1.49,0,0,0,221.13,149ZM197.32,160a10.42,10.42,0,1,1,12.32-8.1A10.43,10.43,0,0,1,197.32,160Z" transform="translate(-56.56 -34.39)"/></svg>